<?xml version="1.0" standalone="no"?>
<!DOCTYPE svg PUBLIC "-//W3C//DTD SVG 20010904//EN"
 "http://www.w3.org/TR/2001/REC-SVG-20010904/DTD/svg10.dtd">
<svg version="1.0" xmlns="http://www.w3.org/2000/svg"
 viewBox="0 0 2816.000000 1536.000000"
 preserveAspectRatio="xMidYMid meet">

<g transform="translate(0.000000,1536.000000) scale(0.100000,-0.100000)"
fill="hsl(145, 45%, 28%)" stroke="none">
<path d="M12890 12753 c-251 -39 -466 -143 -639 -309 -172 -163 -281 -357
-334 -589 -18 -80 -20 -134 -24 -487 l-5 -397 -1446 -3 -1447 -3 -96 -27
c-359 -99 -608 -347 -706 -703 l-28 -100 0 -3385 0 -3385 27 -97 c85 -307 293
-543 580 -657 169 -67 -299 -62 5343 -59 l5110 3 75 23 c337 104 583 359 671
697 l24 90 0 3390 0 3390 -26 95 c-50 179 -113 292 -239 424 -160 167 -358
267 -585 295 -61 7 -533 11 -1482 11 l-1393 0 0 353 c0 460 -17 578 -115 784
-135 286 -373 498 -670 597 -170 57 -146 56 -1409 55 -638 -1 -1172 -3 -1186
-6z m2418 -281 c314 -83 538 -287 638 -582 47 -137 54 -212 54 -586 l0 -334
-190 0 -190 0 0 336 c0 370 -4 403 -62 518 -38 75 -153 193 -223 229 -28 14
-78 34 -110 44 -57 17 -120 18 -1145 18 l-1085 0 -74 -24 c-179 -59 -318 -209
-366 -396 -12 -47 -15 -127 -15 -392 l0 -333 -191 0 -191 0 4 383 c5 419 8
443 76 605 117 278 405 491 717 531 39 5 565 8 1170 7 1100 -2 1100 -2 1183
-24z m-127 -650 c58 -28 112 -80 142 -135 21 -41 22 -52 25 -379 l3 -338
-1271 0 -1270 0 0 313 c0 378 2 391 89 478 95 95 5 88 1196 86 l1040 -2 46
-23z m3804 -1136 c202 -5 257 -15 370 -74 50 -26 96 -62 160 -126 100 -101
148 -179 186 -306 22 -74 23 -86 27 -675 2 -386 0 -632 -7 -691 -35 -298 -197
-574 -446 -759 -118 -88 -321 -171 -460 -189 -59 -8 -463 -46 -486 -46 -15 0
-17 23 -21 198 -6 239 -18 284 -104 370 -98 97 -97 97 -489 97 -336 0 -341 0
-392 -24 -63 -28 -145 -111 -175 -178 -21 -45 -23 -67 -28 -328 l-5 -279 -475
-47 c-261 -26 -639 -61 -840 -78 -201 -17 -388 -34 -417 -37 l-52 -6 -3 373
-3 374 -27 74 c-53 144 -157 265 -282 326 -85 42 -279 96 -443 124 -373 63
-803 51 -1141 -33 -298 -73 -409 -137 -506 -289 -83 -131 -96 -215 -96 -626
l0 -321 -30 0 c-39 0 -795 70 -1330 123 l-425 42 -5 280 c-5 278 -5 280 -32
337 -32 69 -96 135 -163 168 -50 25 -52 25 -374 28 -276 3 -331 1 -375 -13
-98 -31 -184 -115 -223 -217 -12 -32 -17 -93 -21 -240 -4 -194 -5 -198 -26
-198 -46 0 -454 41 -509 51 -392 70 -721 372 -844 774 l-28 90 0 700 0 700 28
80 c81 228 253 389 490 457 32 9 587 14 2347 18 2403 5 7363 3 7675 -4z
m-4533 -2145 c150 -24 351 -71 430 -101 71 -26 138 -97 167 -176 18 -46 21
-78 21 -204 l0 -150 -991 0 -991 0 4 158 c3 135 7 164 26 205 32 71 74 119
129 149 85 46 381 112 633 142 92 11 450 -4 572 -23z m-3707 -346 l25 -24 0
-674 c0 -667 0 -675 -21 -701 l-20 -26 -277 0 c-269 0 -276 1 -299 22 l-23 21
0 682 c0 672 0 682 20 703 20 22 26 22 296 22 l275 0 24 -25z m7265 5 c20 -20
20 -33 20 -702 l0 -682 -22 -23 c-21 -23 -22 -23 -295 -23 l-274 0 -24 25 -25
24 0 676 0 676 25 24 24 25 276 0 c262 0 276 -1 295 -20z m-9404 -266 c106
-94 184 -147 301 -207 187 -95 319 -125 708 -162 94 -9 185 -18 203 -21 l32
-5 0 -332 c0 -183 5 -363 10 -401 18 -125 89 -224 199 -278 45 -23 53 -23 386
-23 336 0 341 0 392 24 63 28 145 112 176 178 21 46 22 63 25 371 3 307 4 322
22 322 10 0 103 -9 207 -20 229 -25 1057 -103 1318 -125 260 -21 255 -20 255
-53 0 -34 32 -87 62 -104 13 -7 57 -15 98 -18 l75 -5 5 -680 c6 -732 4 -703
62 -820 78 -158 212 -269 391 -323 43 -13 131 -16 504 -19 527 -5 574 0 711
67 157 78 286 242 322 410 8 38 13 262 17 710 l4 655 78 5 c49 3 87 11 103 22
22 14 47 64 63 124 2 6 85 17 206 28 392 33 976 87 1204 111 127 13 262 27
302 31 l72 6 3 -323 c3 -308 4 -326 25 -371 30 -66 105 -143 172 -175 l56 -28
326 -3 c310 -3 328 -2 382 18 111 42 197 151 218 278 5 31 9 211 9 399 l0 343
23 4 c12 3 123 14 247 26 124 12 264 28 312 36 267 43 503 168 715 380 l113
111 2 -2306 c2 -1268 0 -2335 -4 -2371 -24 -233 -190 -454 -411 -549 -127 -54
230 -51 -5229 -51 -5589 0 -5101 -6 -5253 69 -184 92 -316 253 -365 447 -20
76 -20 121 -20 2426 l0 2349 48 -58 c27 -32 80 -85 118 -119z m6464 -439 l0
-185 -990 0 -990 0 0 185 0 185 990 0 990 0 0 -185z m-242 -1077 l-3 -663 -26
-56 c-36 -76 -86 -129 -161 -170 l-63 -34 -470 -3 c-347 -2 -482 0 -514 9 -67
19 -154 82 -194 142 -67 97 -67 99 -67 804 l0 633 750 0 751 0 -3 -662z"/>
<path d="M13961 6854 c-98 -35 -174 -106 -219 -203 -23 -47 -27 -70 -27 -146
0 -78 4 -97 27 -145 15 -31 43 -74 62 -96 l34 -40 -29 -219 c-15 -120 -26
-229 -23 -241 3 -12 17 -33 31 -46 24 -23 29 -23 251 -26 335 -4 329 -10 293
271 -13 100 -26 200 -28 222 -4 34 0 46 27 80 18 22 44 65 59 95 22 47 26 69
26 145 0 82 -3 97 -33 157 -37 75 -104 143 -179 178 -63 31 -206 38 -272 14z
m218 -211 c37 -28 71 -92 71 -136 0 -51 -31 -108 -80 -147 -35 -28 -40 -37
-40 -74 0 -37 30 -275 45 -363 l6 -33 -96 0 c-75 0 -95 3 -95 14 0 8 11 91 25
186 34 237 35 234 -20 272 -49 35 -85 96 -85 144 1 72 63 149 134 164 42 8
103 -4 135 -27z"/>
</g>
</svg>
